<?xml version="1.0" standalone="no"?>
<!DOCTYPE svg PUBLIC "-//W3C//DTD SVG 20010904//EN"
 "http://www.w3.org/TR/2001/REC-SVG-20010904/DTD/svg10.dtd">
<svg version="1.0" xmlns="http://www.w3.org/2000/svg"
 width="512.000000pt" height="512.000000pt" viewBox="0 0 512.000000 512.000000"
 preserveAspectRatio="xMidYMid meet">

<g transform="translate(0.000000,512.000000) scale(0.100000,-0.100000)"
fill="#000000" stroke="none">
<path d="M0 2560 l0 -2560 2560 0 2560 0 0 2560 0 2560 -2560 0 -2560 0 0
-2560z m1810 1685 c176 -218 379 -406 485 -450 71 -30 136 18 228 168 26 42
51 70 65 73 15 4 57 -9 125 -39 56 -25 138 -55 182 -66 62 -15 85 -26 100 -47
255 -343 320 -421 468 -556 62 -56 115 -107 119 -113 4 -5 8 -28 8 -50 0 -33
-11 -56 -60 -127 -33 -47 -60 -90 -60 -95 0 -6 79 -87 175 -182 171 -167 177
-172 209 -165 50 9 140 -13 231 -56 113 -53 245 -165 563 -477 l273 -268 -1
-55 c-1 -96 -60 -188 -194 -303 -127 -108 -222 -143 -343 -126 -36 5 -75 15
-88 22 -65 35 -679 646 -724 721 -41 68 -71 171 -71 242 l0 52 -121 116 c-67
64 -126 115 -130 114 -17 -6 -398 -531 -499 -688 -88 -135 -215 -351 -304
-515 -9 -16 -59 -119 -110 -227 l-95 -198 1307 -1 c774 0 1299 -4 1287 -9 -11
-5 -108 -30 -215 -55 -281 -66 -465 -110 -630 -149 -80 -19 -194 -47 -253 -61
l-109 -25 -1766 1 -1767 0 155 35 c166 36 466 101 672 144 70 14 131 29 134
33 7 6 -57 81 -381 442 -93 105 -222 249 -284 320 -63 72 -126 143 -140 159
-26 29 -26 29 44 -9 241 -133 212 -107 591 -523 328 -361 349 -382 381 -382
l35 0 -27 33 c-15 17 -152 169 -304 336 -152 167 -278 308 -280 313 -4 11 45
-13 204 -102 66 -37 176 -98 245 -135 69 -38 140 -77 159 -87 18 -10 35 -18
36 -16 2 2 -62 111 -142 243 -80 132 -148 248 -150 257 -3 9 19 88 47 174 l53
158 44 -48 c24 -26 43 -58 42 -69 0 -12 -4 -71 -9 -132 l-9 -110 92 -120 c157
-207 319 -408 374 -463 54 -55 111 -86 137 -76 33 13 139 246 271 594 89 235
84 226 84 153 1 -41 -6 -77 -20 -109 -73 -173 -165 -442 -181 -535 -16 -91 1
-128 35 -75 9 12 99 196 200 407 102 211 247 512 322 669 76 157 159 330 185
385 26 55 111 233 189 395 78 162 144 311 147 331 7 42 -6 72 -63 145 -21 27
-54 75 -73 108 -19 32 -45 63 -57 69 -26 12 -50 -2 -121 -67 -47 -43 -47 -37
3 44 11 19 31 59 44 88 l22 53 -49 82 c-27 45 -73 124 -101 175 -29 50 -54 92
-55 92 -2 0 -25 -38 -52 -85 -83 -150 -178 -225 -283 -225 -97 0 -102 -6 -341
-387 -63 -100 -116 -181 -118 -179 -2 2 13 46 33 97 85 217 175 500 175 550 0
14 -14 44 -30 65 -55 70 -135 197 -217 339 -45 76 -85 141 -91 143 -18 6 -234
-273 -354 -458 -390 -600 -479 -827 -466 -1189 4 -101 11 -143 32 -211 32 -98
98 -227 165 -319 25 -36 50 -71 54 -79 11 -17 -93 -304 -108 -299 -19 6 -114
213 -154 337 -151 468 -128 799 85 1228 108 218 489 767 659 950 93 100 93
100 225 -63z m1620 -3674 c-15 -8 -71 -23 -230 -60 -47 -11 -402 -97 -790
-191 -388 -94 -732 -177 -764 -185 -51 -12 -57 -12 -45 0 8 8 136 111 284 229
l270 215 645 0 c355 0 638 -3 630 -8z"/>
<path d="M3223 2999 c-18 -5 -33 -15 -33 -22 0 -8 103 -116 229 -241 l230
-227 42 30 c23 17 48 31 56 31 7 0 13 3 13 8 0 7 -267 266 -387 375 -67 60
-84 65 -150 46z"/>
<path d="M3100 2816 c0 -18 26 -49 101 -118 55 -51 105 -95 110 -97 6 -2 9 9
7 25 -2 22 -28 53 -101 122 -54 50 -103 92 -108 92 -5 0 -9 -11 -9 -24z"/>
<path d="M3882 2503 c-41 -20 -62 -59 -62 -116 0 -73 26 -105 419 -515 102
-107 197 -199 211 -207 29 -15 55 -7 103 29 46 34 151 85 195 94 29 6 38 13
41 32 2 21 -25 52 -165 189 -279 270 -493 454 -576 491 -52 24 -122 25 -166 3z"/>
</g>
</svg>
