<?xml version="1.0" standalone="no"?>
<!DOCTYPE svg PUBLIC "-//W3C//DTD SVG 20010904//EN"
 "http://www.w3.org/TR/2001/REC-SVG-20010904/DTD/svg10.dtd">
<svg version="1.0" xmlns="http://www.w3.org/2000/svg"
 width="512.000000pt" height="512.000000pt" viewBox="0 0 512.000000 512.000000"
 preserveAspectRatio="xMidYMid meet">

<g transform="translate(0.000000,512.000000) scale(0.100000,-0.100000)"
fill="#000000" stroke="none">
<path d="M2355 5110 c-798 -70 -1505 -492 -1938 -1155 -391 -600 -512 -1340
-332 -2040 99 -387 299 -759 578 -1076 l47 -54 162 34 c89 18 169 36 179 39
14 6 3 22 -60 93 -481 540 -720 808 -741 833 l-24 29 24 -13 c85 -44 270 -157
294 -179 15 -14 177 -189 358 -388 316 -348 332 -363 366 -363 l35 0 -20 22
c-10 13 -145 163 -299 333 -154 171 -284 316 -288 323 -10 17 -38 32 337 -175
165 -91 300 -163 302 -161 2 2 -63 115 -146 251 -82 136 -149 253 -149 260 0
7 23 81 52 166 l53 153 43 -48 42 -49 -5 -75 c-3 -41 -8 -100 -11 -131 l-5
-56 171 -219 c227 -292 311 -388 366 -420 36 -21 50 -25 67 -17 37 17 159 285
293 646 l59 158 3 -56 c3 -49 -5 -76 -57 -208 -134 -341 -185 -551 -128 -535
16 5 52 77 420 843 71 149 244 509 385 800 297 618 289 592 211 691 -25 33
-65 89 -88 126 -23 37 -51 70 -62 73 -23 8 -53 -10 -118 -69 l-45 -41 20 35
c12 19 31 51 42 71 12 20 29 56 37 79 l15 44 -49 80 c-27 45 -67 115 -89 156
-69 127 -62 124 -112 34 -51 -93 -135 -185 -196 -214 -27 -13 -68 -23 -109
-25 -47 -2 -72 -8 -87 -21 -23 -22 -75 -99 -244 -371 -65 -105 -120 -190 -121
-189 -2 1 22 65 51 142 67 173 139 390 156 465 16 71 10 92 -40 153 -36 44
-126 187 -239 384 -23 39 -46 72 -51 72 -15 0 -211 -251 -308 -393 -180 -265
-382 -618 -436 -759 -55 -148 -70 -240 -70 -438 -1 -178 0 -188 28 -270 38
-112 82 -199 162 -316 l65 -97 -47 -126 c-26 -69 -51 -137 -56 -151 -9 -24
-10 -23 -36 20 -68 116 -152 347 -191 530 -60 284 -47 505 45 771 73 213 174
393 397 713 249 355 413 551 458 544 16 -2 56 -43 129 -133 228 -282 464 -481
545 -461 39 10 97 69 163 166 31 47 65 86 75 88 10 2 64 -17 120 -41 56 -25
139 -56 185 -68 l82 -22 72 -101 c40 -56 116 -155 169 -221 88 -109 135 -158
312 -324 51 -48 57 -57 57 -94 0 -33 -11 -56 -60 -128 -33 -48 -60 -91 -60
-96 0 -4 78 -86 173 -181 l173 -173 40 7 c53 8 149 -16 239 -61 105 -51 250
-175 553 -472 l273 -268 -1 -53 c0 -29 -7 -69 -15 -89 -41 -98 -196 -248 -320
-309 -62 -31 -81 -35 -143 -35 -127 0 -138 6 -311 171 -273 259 -545 541 -573
595 -30 57 -58 167 -58 229 0 42 -3 46 -121 160 -66 65 -124 116 -129 114 -18
-6 -403 -536 -505 -694 -96 -150 -306 -511 -325 -558 -4 -12 -47 -101 -94
-198 l-85 -178 1158 0 1159 0 65 88 c194 261 346 587 426 915 46 188 62 314
68 533 14 488 -94 926 -329 1337 -260 454 -627 799 -1093 1027 -265 130 -484
199 -763 240 -162 23 -431 33 -577 20z"/>
<path d="M3223 2999 c-18 -5 -33 -15 -33 -22 0 -7 103 -115 229 -241 l229
-229 33 26 c19 13 44 28 57 32 12 3 22 10 22 14 0 7 -282 279 -393 379 -60 55
-79 60 -144 41z"/>
<path d="M3100 2817 c0 -21 40 -65 178 -192 l43 -40 -3 35 c-3 30 -18 49 -101
128 -53 50 -102 92 -107 92 -6 0 -10 -10 -10 -23z"/>
<path d="M3885 2505 c-48 -26 -65 -54 -65 -113 0 -81 -1 -80 419 -520 101
-106 197 -200 213 -208 28 -14 32 -14 74 13 102 63 142 84 194 100 77 24 83
29 66 62 -8 14 -79 89 -157 166 -254 248 -484 447 -563 487 -54 28 -142 34
-181 13z"/>
<path d="M4420 839 c-19 -4 -197 -48 -395 -96 l-360 -88 -1405 -5 -1405 -5
101 -81 c179 -143 391 -272 584 -355 l98 -41 84 65 c45 36 162 129 258 206
l175 140 645 0 c355 0 638 -3 630 -8 -8 -4 -49 -16 -90 -26 -41 -9 -212 -50
-380 -91 -168 -41 -415 -101 -550 -133 -135 -33 -351 -86 -480 -117 l-235 -58
75 -23 c294 -94 546 -129 864 -120 396 11 707 88 1061 261 189 93 327 181 485
309 104 84 304 278 285 276 -6 -1 -26 -5 -45 -10z"/>
</g>
</svg>
